<svg xmlns="http://www.w3.org/2000/svg" viewBox="0 0 100 100">
    <g fill="#f6f6f6">
        <circle class="cls-1" cx="50" cy="50" r="47.5"/>
    </g>
    <g fill="#bdc3c7">
        <path d="M69.42,34a2,2,0,0,0-.35,0A18.53,18.53,0,0,0,71,25.51c0-6.66-4-9.5-4.15-9.5s-0.38-8.23-12.11-9.5A79.26,79.26,0,0,1,43,4.59s2.29,2.49,2,2.87-3.31-.13-4.08.32,0.79,0.83.79,0.83S37,9.88,35.42,14.06c-1.1,3-3,6.06-3.6,11A25.62,25.62,0,0,0,32.61,34H32.54c-1.54.28-2.51,2.06-2,4.8s2.39,6.08,3.93,5.8l0.13,0a22.3,22.3,0,0,0,5.14,8.56v8.94L50.8,73.65v0.06l0,0,0,0V73.65L61.92,62.06V53.3a22.25,22.25,0,0,0,5.35-8.78,0.93,0.93,0,0,0,.23.08c1.54,0.28,3.43-3.06,3.93-5.8S71,34.28,69.42,34Z" transform="translate(0 0)"/>
        <path d="M92.28,73.22a4.2,4.2,0,0,0-.33-0.3c-4-3.09-22.52-9-27.23-10.46A47.69,47.69,0,0,1,62.59,79c-2.43,7.48-5,12.08-7.08,14.89L53.06,78.57l2.83-2.87-5.13-5.07-5.07,5.13,2.73,2.7L46,93.74c-2.07-2.83-4.56-7.38-6.93-14.69a47.63,47.63,0,0,1-2.14-16.31C31.15,64.55,14.33,70,10.55,72.92a7.11,7.11,0,0,0-1.72,2.21A48.24,48.24,0,0,0,92.28,73.22Z" transform="translate(0 0)"/>
        <path d="M50,100a50,50,0,1,1,50-50A50.06,50.06,0,0,1,50,100ZM50,3.54A46.46,46.46,0,1,0,96.46,50,46.51,46.51,0,0,0,50,3.54Z" transform="translate(0 0)"/>
    </g>
</svg>